<svg width="52" height="15" fill="none" xmlns="http://www.w3.org/2000/svg" role="img"><title>Nuvens transparentes</title>
<path fill-rule="evenodd" clip-rule="evenodd" d="M49.842 14.856H1.481c-.34 0-.668-.148-.887-.41a1.13 1.13 0 01-.248-.938c.018-.086.415-2.093 2.108-4.135 1.538-1.86 4.493-4.13 9.82-4.38 3.686-.17 5.184-.955 6.923-1.865 2.574-1.343 5.5-2.873 15.314-2.6 6.041.165 10.551 1.832 13.396 4.96 3.404 3.731 3.099 8.133 3.087 8.321a1.153 1.153 0 01-1.152 1.047zM3.1 12.58H48.65c-.132-1.303-.645-3.595-2.488-5.603-2.413-2.622-6.358-4.027-11.726-4.175-9.198-.25-11.732 1.064-14.168 2.338-1.814.95-3.692 1.928-7.89 2.127-5.984.285-8.38 3.453-9.279 5.313z" fill="#2E2D37"></path>
</svg>