<svg width="28" height="28" viewBox="0 0 28 28" fill="none" xmlns="http://www.w3.org/2000/svg">
<path fill-rule="evenodd" clip-rule="evenodd" d="M6.10352e-05 13.866C6.10352e-05 6.20825 6.21953 0 13.8911 0C21.5628 0 27.7818 6.20825 27.7818 13.866C27.7818 21.5238 21.5628 27.7316 13.8911 27.7316C6.21953 27.7316 6.10352e-05 21.5238 6.10352e-05 13.866ZM20.4446 19.6224C21.1079 19.6573 21.6564 19.1313 21.6564 18.4761V9.25593C21.6564 8.60159 21.1079 8.07476 20.4446 8.10965C19.8228 8.14196 19.3567 8.69938 19.3567 9.32098V11.8565C19.3567 12.3325 18.97 12.718 18.4936 12.718H15.9043C15.4275 12.718 15.0412 12.3325 15.0412 11.8565V8.45944C15.0412 7.83784 14.5747 7.28042 13.9529 7.24811C13.2896 7.21322 12.7415 7.74005 12.7415 8.39439V11.8565C12.7415 12.3325 12.3544 12.718 11.8784 12.718H9.28913C8.81183 12.718 8.42603 12.3325 8.42603 11.8565V9.32098C8.42603 8.69938 7.95953 8.14196 7.33724 8.10965C6.67438 8.07476 6.12588 8.60159 6.12588 9.25593V18.4111C6.12588 19.0327 6.59195 19.5897 7.21381 19.6224C7.8771 19.6573 8.42603 19.1313 8.42603 18.4761V15.8756C8.42603 15.3996 8.81183 15.014 9.28913 15.014H11.8784C12.3544 15.014 12.7415 15.3996 12.7415 15.8756V19.2726C12.7415 19.8942 13.2076 20.4512 13.829 20.4839C14.4923 20.5188 15.0412 19.9929 15.0412 19.3377V15.8756C15.0412 15.3996 15.4275 15.014 15.9043 15.014H18.4936C18.97 15.014 19.3567 15.3996 19.3567 15.8756V18.4111C19.3567 19.0327 19.8228 19.5897 20.4446 19.6224Z" fill="white"/>
</svg>
