<?xml version="1.0" encoding="UTF-8"?>
<svg width="28" height="28" viewBox="0 0 28 28" version="1.1" xmlns="http://www.w3.org/2000/svg" xmlns:xlink="http://www.w3.org/1999/xlink">
    <g stroke="none" stroke-width="1" fill="none" fill-rule="evenodd">
        <path d="M13.8911726,0 C6.2195506,0 8.63095238e-05,6.20824615 8.63095238e-05,13.8660308 C8.63095238e-05,21.5238154 6.2195506,27.7316308 13.8911726,27.7316308 C21.5627946,27.7316308 27.7818274,21.5238154 27.7818274,13.8660308 C27.7818274,6.20824615 21.5627946,0 13.8911726,0 L13.8911726,0 Z" fill="#F51344"></path>
        <path d="M21.6564405,18.4761231 C21.6564405,19.1313231 21.1079435,19.6572923 20.4446548,19.6224 C19.8227946,19.5896615 19.3567232,19.0326769 19.3567232,18.4110769 L19.3567232,15.8755692 C19.3567232,15.3995692 18.9700565,15.0140308 18.493628,15.0140308 L15.9043423,15.0140308 C15.4274821,15.0140308 15.041247,15.3995692 15.041247,15.8755692 L15.041247,19.3376615 C15.041247,19.9928615 14.4923185,20.5188308 13.8290298,20.4839385 C13.2076012,20.4512 12.7415298,19.8942154 12.7415298,19.2726154 L12.7415298,15.8755692 C12.7415298,15.3995692 12.3544315,15.0140308 11.8784345,15.0140308 L9.28914881,15.0140308 C8.81185714,15.0140308 8.42605357,15.3995692 8.42605357,15.8755692 L8.42605357,18.4761231 C8.42605357,19.1313231 7.877125,19.6572923 7.21383631,19.6224 C6.59197619,19.5896615 6.12590476,19.0326769 6.12590476,18.4110769 L6.12590476,9.25593846 C6.12590476,8.6016 6.67440179,8.07476923 7.33725893,8.10966154 C7.9595506,8.14196923 8.42605357,8.69938462 8.42605357,9.32098462 L8.42605357,11.8564923 C8.42605357,12.3324923 8.81185714,12.7180308 9.28914881,12.7180308 L11.8784345,12.7180308 C12.3544315,12.7180308 12.7415298,12.3324923 12.7415298,11.8564923 L12.7415298,8.3944 C12.7415298,7.74006154 13.2895952,7.21323077 13.9528839,7.24812308 C14.574744,7.28043077 15.041247,7.83784615 15.041247,8.45944615 L15.041247,11.8564923 C15.041247,12.3324923 15.4274821,12.7180308 15.9043423,12.7180308 L18.493628,12.7180308 C18.9700565,12.7180308 19.3567232,12.3324923 19.3567232,11.8564923 L19.3567232,9.32098462 C19.3567232,8.69938462 19.8227946,8.14196923 20.4446548,8.10966154 C21.1079435,8.07476923 21.6564405,8.6016 21.6564405,9.25593846 L21.6564405,18.4761231 Z" fill="#FFFFFF"></path>
    </g>
</svg>