<svg width="115" height="22" viewBox="0 0 115 22" fill="none" xmlns="http://www.w3.org/2000/svg">
<path fill-rule="evenodd" clip-rule="evenodd" d="M14.5556 8.03487C14.9411 8.66138 15.1339 9.38427 15.1821 10.1072C18.7487 11.0228 21.1586 12.9987 21.1104 15.1674C21.1104 18.3481 16.3871 20.9023 10.5552 20.9023C4.72333 20.9023 0 18.3481 0 15.1674C0 12.9023 2.45806 10.9264 5.97646 10.0108C5.97646 10.8782 6.16925 11.7457 6.60302 12.5168L9.92864 18.2517C10.1696 18.6855 10.3624 19.1674 10.4588 19.6493L10.6034 19.4084C11.4228 18.0108 11.4228 16.2276 10.6034 14.8301L7.95255 10.2517C7.13319 8.80596 7.13319 7.07102 7.95255 5.67343L8.09714 5.43246C8.19353 5.91439 8.38632 6.39632 8.62731 6.83006L10.1696 9.52885L12.5795 13.7216C12.8205 14.1554 13.0133 14.6373 13.1097 15.1192L13.2542 14.8782C14.0736 13.4807 14.0736 11.6975 13.2542 10.2999L10.6034 5.72162C9.78404 4.32403 9.78404 2.5409 10.6034 1.14331L10.748 0.902344C10.8444 1.38427 11.0372 1.8662 11.2782 2.29993L14.5556 8.03487ZM25.3743 18.091C25.1404 18.7696 25.0468 19.3028 25 20.1268C26.0761 20.66 27.386 20.9024 28.9299 20.9024C32.2047 20.9024 33.8889 19.3028 33.8889 17.0247C33.8889 15.0858 32.8597 13.9225 30.4269 12.8561L29.3977 12.4199C28.041 11.8382 27.2924 11.2081 27.2924 10.1902C27.2924 9.12383 28.041 8.44523 29.7252 8.44523C30.6141 8.44523 31.8772 8.63912 32.9065 9.02689C33.0936 8.44523 33.2339 7.81511 33.2807 7.03957C32.2047 6.6518 31.0351 6.45791 29.772 6.45791C26.6842 6.45791 25.1404 7.91205 25.1404 10.1902C25.1404 12.2745 26.3568 13.3408 28.1813 14.1648L29.1638 14.5526C30.9416 15.3766 31.6901 15.9098 31.6901 17.0731C31.6901 18.2849 30.6609 18.8666 28.8831 18.8666C27.8538 18.8666 26.4503 18.6242 25.3743 18.091ZM45 10.3593V20.1101H42.9448L42.8469 18.9268C42.2597 19.7788 41.4278 20.3468 40.0087 20.3468C37.3662 20.3468 35.5556 18.4534 35.5556 15.1874C35.5556 11.7793 37.464 9.79125 41.1831 9.79125C42.6511 9.83858 43.8745 9.98059 45 10.3593ZM42.7777 11.5561V17.894C42.1895 18.3362 41.5032 18.631 40.5719 18.6801C38.6111 18.6801 37.7777 17.2062 37.7777 15.1427C37.7777 12.8827 38.8562 11.4579 41.1601 11.4579C41.7974 11.4579 42.3366 11.4579 42.7777 11.5561ZM56.1112 13.6648V20.3468H53.9134V14.0522C53.9134 12.4543 53.3762 11.728 51.1783 11.728C50.6411 11.728 50.055 11.7765 49.4201 11.8733V20.3468H47.2223V10.3723C48.6387 10.0333 50.2015 9.79125 51.2272 9.79125C54.939 9.83967 56.1112 11.2438 56.1112 13.6648ZM63.7939 18.6915C63.3666 18.888 62.7493 18.9863 62.132 18.9863C61.0874 18.9863 60.4701 18.4458 60.4701 17.1684V12.2062H63.699C63.7939 11.6166 63.8414 10.9779 63.8889 10.2901H60.4701V6.45791C59.8053 6.45791 58.9981 6.55617 58.3333 6.80183V17.4632C58.3333 19.9197 59.6629 20.9024 61.7522 20.9024C62.322 20.9024 62.9867 20.8041 63.5565 20.5584C63.6515 19.9689 63.7465 19.281 63.7939 18.6915ZM73.8889 10.3593V20.1101H71.8336L71.7358 18.9268C71.1486 19.7788 70.3167 20.3468 68.8975 20.3468C66.2551 20.3468 64.4445 18.4534 64.4445 15.1874C64.4445 11.7793 66.3529 9.79125 70.072 9.79125C71.54 9.83858 72.7145 9.98059 73.8889 10.3593ZM71.6666 11.5561V17.894C71.1274 18.3362 70.3921 18.631 69.4607 18.6801C67.5 18.6801 66.6666 17.2062 66.6666 15.1427C66.6666 12.8827 67.7451 11.4579 70.049 11.4579C70.6862 11.4579 71.2254 11.4579 71.6666 11.5561ZM85 13.6648V20.3468H82.7656V14.0522C82.7656 12.4543 82.2313 11.728 80.0455 11.728C79.5112 11.728 78.9283 11.7765 78.2969 11.8733V20.3468H76.1111V10.3723C77.5197 10.0333 79.0741 9.79125 80.0941 9.79125C83.7857 9.83967 85 11.2438 85 13.6648ZM96.1112 20.1098V6.45791C95.3809 6.45791 94.602 6.50531 93.9205 6.69492V9.91828C93.3849 9.82348 92.8494 9.77608 92.2652 9.77608C88.5654 9.77608 86.6667 11.767 86.6667 15.1799C86.6667 18.4507 88.468 20.3468 91.0969 20.3468C92.5573 20.3468 93.3849 19.778 93.9691 18.8773L94.0665 20.1098H96.1112ZM93.8889 17.894V11.6544C93.3007 11.5561 92.7124 11.4579 92.1242 11.4579C89.9183 11.4579 88.8889 12.8335 88.8889 15.1427C88.8889 17.2062 89.7222 18.6801 91.683 18.6801C92.5654 18.631 93.3007 18.3362 93.8889 17.894ZM100.029 15.9724H107.124C107.222 15.4019 107.222 14.9264 107.222 14.2607C107.222 11.7882 105.852 9.79125 102.671 9.79125C99.148 9.79125 97.7778 12.1211 97.7778 15.0215C97.7778 18.3498 99.5394 20.3468 103.258 20.3468C104.482 20.3468 105.509 20.1566 106.537 19.7287C106.641 19.2925 106.72 18.7853 106.792 18.324L106.792 18.3234L106.792 18.3224C106.822 18.1306 106.851 17.9467 106.88 17.7792C105.803 18.3023 104.58 18.54 103.356 18.54C101.35 18.54 100.322 17.7317 100.029 15.9724ZM100 14.2357H105C105 12.4867 104.118 11.4579 102.598 11.4579C100.98 11.5093 100.147 12.4352 100 14.2357ZM114.253 11.8249C114.349 11.3891 114.444 10.6144 114.444 9.93651C114.125 9.87195 113.678 9.85043 113.231 9.82891C113.008 9.81815 112.784 9.80739 112.577 9.79125C111.379 9.79125 109.799 10.0333 108.889 10.3723V20.3468H111.044V11.8249C111.571 11.7765 112.098 11.728 112.624 11.728C113.205 11.728 113.661 11.7702 114.148 11.8152L114.253 11.8249Z" fill="white"/>
</svg>
