<svg width="20" height="20" viewBox="0 0 20 20" fill="none" xmlns="http://www.w3.org/2000/svg">
<path fill-rule="evenodd" clip-rule="evenodd" d="M19.102 0H.898a.86.86 0 00-.625.273A.86.86 0 000 .898v18.204a.86.86 0 00.273.625.86.86 0 00.625.273h18.204a.86.86 0 00.625-.273.86.86 0 00.273-.625V.898a.86.86 0 00-.273-.625.86.86 0 00-.625-.273zm-5.625 10c0 .964-.339 1.784-1.016 2.46A3.352 3.352 0 0110 13.478a3.352 3.352 0 01-2.46-1.016A3.352 3.352 0 016.522 10c0-.964.339-1.784 1.016-2.46A3.352 3.352 0 0110 6.522c.964 0 1.784.339 2.46 1.016A3.352 3.352 0 0113.478 10zm4.023 7.5h-15V8.75h1.64A6.77 6.77 0 004.024 10c0 1.64.586 3.047 1.758 4.219C6.953 15.39 8.36 15.977 10 15.977c1.64 0 3.047-.586 4.219-1.758 1.172-1.172 1.758-2.578 1.758-4.219 0-.417-.04-.833-.118-1.25H17.5v8.75zm0-11.25h-3.75V2.5h3.75v3.75z" fill="#FFF" opacity="0.7"/>
</svg>