<svg width="18" height="20" viewBox="0 0 18 20" fill="none" xmlns="http://www.w3.org/2000/svg">
<path fill-rule="evenodd" clip-rule="evenodd" d="M.042 20H4V5.333H.042V20zM12.125 5.333c-.194 0-.382.014-.562.042-.181.028-.355.07-.521.125-.167.056-.306.104-.417.146-.111.042-.25.11-.417.208a8.49 8.49 0 00-.312.188 5.55 5.55 0 00-.313.25l-.25.208V5.333H5.375V20h3.958v-9.417c0-.083.035-.236.104-.458.07-.222.167-.41.292-.562.125-.153.333-.3.625-.438a2.35 2.35 0 011.021-.208c.667 0 1.16.166 1.48.5.319.333.478.777.478 1.333V20h4.209v-9.083c0-.973-.153-1.813-.459-2.521-.305-.709-.66-1.25-1.062-1.625a4.976 4.976 0 00-1.417-.917c-.542-.236-1-.382-1.375-.437a7.529 7.529 0 00-1.104-.084zM0 2c0 .556.194 1.028.583 1.417C.973 3.806 1.444 4 2 4s1.028-.194 1.417-.583C3.806 3.027 4 2.556 4 2S3.806.972 3.417.583A1.929 1.929 0 002 0C1.444 0 .972.194.583.583A1.929 1.929 0 000 2z" fill="#FFF" opacity="0.7"/>
</svg>
