<svg width="25" height="21" viewBox="0 0 25 21" fill="none" xmlns="http://www.w3.org/2000/svg">
<path d="M23.942.615a10.27 10.27 0 01-3.22 1.202C19.727.76 18.493.231 17.018.231c-1.378 0-2.564.497-3.557 1.49-.994.994-1.49 2.18-1.49 3.558 0 .384.047.77.143 1.154a13.974 13.974 0 01-5.793-1.539 13.92 13.92 0 01-4.591-3.75 4.712 4.712 0 00-.721 2.548c0 1.795.753 3.19 2.26 4.183a4.369 4.369 0 01-2.26-.625v.096c0 1.186.376 2.244 1.13 3.173.753.93 1.722 1.523 2.908 1.78a6.408 6.408 0 01-1.346.143c-.32 0-.641-.032-.962-.096a5.301 5.301 0 001.803 2.524c.85.657 1.82.986 2.909.986-1.827 1.442-3.91 2.163-6.25 2.163-.385 0-.785-.016-1.202-.048 2.372 1.507 4.952 2.26 7.74 2.26 2.244 0 4.295-.433 6.154-1.298 1.86-.866 3.374-1.995 4.543-3.39a15.991 15.991 0 002.717-4.615c.64-1.683.961-3.374.961-5.072V5.23a10.32 10.32 0 002.5-2.644c-.93.416-1.89.689-2.884.817C22.82 2.73 23.558 1.8 23.942.615z" fill="#FFF" opacity="0.7"/>
</svg>
