<svg width="30" height="22" viewBox="0 0 30 22" fill="none" xmlns="http://www.w3.org/2000/svg">
<path d="M25.142 1.33C17.263.8 10.18.8 3.892 1.33c-.985.113-1.818.662-2.5 1.647C.71 3.962.312 4.985.199 6.045a68.8 68.8 0 000 10.455c.114 1.06.511 2.083 1.193 3.068.682.985 1.515 1.553 2.5 1.705 7.652.492 14.735.492 21.25 0 .985-.19 1.818-.777 2.5-1.762.682-.984 1.08-1.988 1.193-3.011.265-3.56.265-7.14 0-10.739a6.396 6.396 0 00-1.108-3.011c-.625-.91-1.486-1.383-2.585-1.42zM10.881 16.443V5.99l9.09 5.227-9.09 5.227z" fill="#FFF" opacity="0.7"/>
</svg>
