<svg width="25" height="24" viewBox="0 0 25 24" fill="none" xmlns="http://www.w3.org/2000/svg">
<path fill-rule="evenodd" clip-rule="evenodd" d="M19.467 8.652c.035 2.747-.58 9.284-6.933 11.277-6.354-1.993-6.968-8.53-6.933-11.29v-.463c1.53-.38 4.824-1.41 6.933-3.616 2.109 2.207 5.403 3.237 6.933 3.616v.476zm1.174-2.264c-.053-.01-5.27-.961-7.275-3.97-.371-.557-1.293-.557-1.664 0-2 2.998-7.223 3.96-7.276 3.97a1 1 0 00-.825.985v1.254c-.032 2.531.498 10.975 8.658 13.306a.993.993 0 00.55 0c8.16-2.33 8.69-10.774 8.658-13.294V7.373a.999.999 0 00-.826-.985zm-8.137.283l-.417.023-.248.252c-.279.284-.272.63-.27.795v.466c-1.184.361-1.98 1.35-1.992 2.482 0 .735.34 1.395.956 1.857.436.328 1.012.572 1.716.729l.184.036c.521.116.896.26 1.114.428.222.171.24.294.24.406 0 .232-.158.412-.29.522-.23.191-.553.304-.882.309l-.132.003c-.706-.052-1.345-.59-1.526-.754a.953.953 0 00-.655-.239h-.04l-.472.063-.23.325a.98.98 0 00.131 1.292c.326.299.996.831 1.878 1.095v.469c-.002.132-.01.482.276.772l.311.272h.354c.04 0 .956-.013.956-1.073v-.406c1.324-.347 2.215-1.402 2.225-2.65 0-.772-.355-1.464-.999-1.95l-.012-.008c-.47-.341-1.072-.585-1.893-.77l-.17-.034c-.428-.101-.743-.229-.937-.379-.198-.153-.198-.239-.198-.315 0-.204.163-.361.233-.419a1.3 1.3 0 01.705-.272l.161-.001c.435.017.801.264 1.313.64.222.151.5.198.77.131l.388-.132.18-.295c.26-.436.15-1.011-.246-1.279-.344-.26-.859-.647-1.52-.854v-.467c0-1.053-.908-1.07-.96-1.07h-.002z" fill="#AEAEBA"></path>
</svg>


