<svg width="24" height="24" viewBox="0 0 24 24" fill="none" xmlns="http://www.w3.org/2000/svg">
<path fill-rule="evenodd" clip-rule="evenodd" d="M14 10H5.618l2-4h8.764l.723 1.447a1 1 0 101.79-.894l-1-2A1.001 1.001 0 0017 4H7c-.379 0-.725.214-.895.553l-3 6c-.005.012-.007.025-.013.037-.009.022-.014.044-.023.066a1.003 1.003 0 00-.061.305C3.007 10.975 3 10.986 3 11v6c0 .064.025.12.036.18-.022.104-.036.21-.036.32v1c0 .825.675 1.5 1.5 1.5h1c.825 0 1.5-.675 1.5-1.5V18h6a1 1 0 000-2H5v-1h2a1 1 0 000-2H5v-1h9a1 1 0 000-2zm7.158 5.223l-.012-.009c-.47-.34-1.07-.585-1.893-.769l-.17-.034c-.428-.102-.743-.23-.937-.38-.197-.152-.197-.239-.197-.315 0-.205.163-.36.232-.419.185-.15.457-.256.706-.272h.161c.434.017.8.263 1.312.64.222.15.502.2.77.131l.39-.132.177-.295c.262-.437.15-1.012-.245-1.28-.344-.259-.859-.647-1.519-.853v-.467c0-1.053-.909-1.07-.962-1.07l-.417.023-.249.252c-.278.283-.272.63-.269.795v.466c-1.184.361-1.982 1.35-1.993 2.481 0 .735.34 1.394.957 1.858.435.327 1.011.572 1.715.728l.184.037c.523.116.898.26 1.114.428.221.17.24.293.24.405 0 .234-.158.413-.29.523a1.44 1.44 0 01-.882.31l-.132.001c-.704-.05-1.345-.589-1.526-.754a.984.984 0 00-.695-.238l-.47.063-.233.325a.982.982 0 00.132 1.292c.325.3.995.83 1.88 1.094v.47c-.004.132-.012.482.274.771l.311.272h.354c.04 0 .957-.012.957-1.072v-.407c1.325-.346 2.215-1.402 2.225-2.65 0-.772-.355-1.464-1-1.949z" fill="#AEAEBA"></path>
</svg>