<svg width="24" height="24" viewBox="0 0 24 24" fill="none" xmlns="http://www.w3.org/2000/svg">
<path fill-rule="evenodd" clip-rule="evenodd" d="M8.427 6.005c-.163 0-.323.013-.479.037C6.716 6.236 5.4 7.216 5.4 9.385c0 4.025 5.272 7.737 7 8.845 1.728-1.108 7-4.82 7-8.845 0-2.17-1.318-3.15-2.55-3.343-1.276-.2-2.917.403-3.499 2.204a.999.999 0 01-1.903 0c-.51-1.582-1.839-2.241-3.02-2.241zm4.166 14.284h-.389c-.184 0-.365-.052-.523-.148C9.738 18.947 3.4 14.645 3.4 9.385c0-3.213 2.13-4.986 4.24-5.318 1.87-.294 3.634.413 4.76 1.797 1.126-1.383 2.89-2.094 4.76-1.797 2.111.332 4.24 2.105 4.24 5.318 0 5.26-6.34 9.562-8.283 10.756a1.004 1.004 0 01-.523.148z" fill="#AEAEBA"></path>
</svg>