<svg width="25" height="24" viewBox="0 0 25 24" fill="none" xmlns="http://www.w3.org/2000/svg">
<path fill-rule="evenodd" clip-rule="evenodd" d="M13.399 19c-1.103 0-2-.897-2-2s.897-2 2-2 2 .897 2 2-.897 2-2 2zm8-3h-4.142c-.447-1.72-2-3-3.858-3s-3.411 1.28-3.858 3H4.399v-2h2a1 1 0 000-2h-2v-1.144l2.31-.361c1.907-.298 3.712-1.253 5.277-2.817C13.076 6.611 14.64 6 16.275 6h5.124a1 1 0 000-2h-5.124c-2.185 0-4.204.798-5.687 2.247l-.071.071C9.309 7.526 7.886 8.287 6.4 8.519l-3.156.493a1 1 0 00-.846.988v7a1 1 0 001 1H9.54c.447 1.72 2 3 3.858 3s3.41-1.28 3.858-3h4.142a1 1 0 000-2z" fill="#AEAEBA"></path>
</svg>