<svg width="24" height="24" viewBox="0 0 24 24" fill="none" xmlns="http://www.w3.org/2000/svg">
<path fill-rule="evenodd" clip-rule="evenodd" d="M11.127 14.2066C11.127 14.7846 11.5998 15.2574 12.1777 15.2574C12.7662 15.2574 13.2285 14.7951 13.2285 14.2066V13.5446C13.7224 13.1348 14.1847 12.641 14.6891 11.9685L14.8257 11.7898C15.6558 10.739 15.8975 9.38353 15.4667 8.24868C15.1199 7.35551 14.4579 6.65149 13.6068 6.29422C13.155 6.09457 12.6716 6 12.1777 6C10.1497 6 8.5 7.64973 8.5 9.67775C8.5 10.2557 8.97285 10.7285 9.55078 10.7285C10.1287 10.7285 10.6016 10.2557 10.6016 9.67775C10.6016 8.80559 11.3161 8.10157 12.1777 8.10157C12.3879 8.10157 12.5981 8.1436 12.7872 8.22766C13.1024 8.36426 13.3546 8.63747 13.4912 8.99474C13.6699 9.44657 13.5438 10.0245 13.155 10.5184L13.0079 10.718C12.6086 11.2644 12.2408 11.6532 11.873 11.9474L11.8726 11.9478C11.6726 12.1057 11.127 12.5364 11.127 13.303V14.2066ZM13.1655 17.0123C13.1655 17.5578 12.7233 18 12.1778 18C11.6323 18 11.1901 17.5578 11.1901 17.0123C11.1901 16.4667 11.6323 16.0245 12.1778 16.0245C12.7233 16.0245 13.1655 16.4667 13.1655 17.0123ZM12.001 20C7.58998 20 4.00098 16.411 4.00098 12C4.00098 7.589 7.58998 4 12.001 4C16.412 4 20.001 7.589 20.001 12C20.001 16.411 16.412 20 12.001 20ZM12.001 2C6.48698 2 2.00098 6.486 2.00098 12C2.00098 17.514 6.48698 22 12.001 22C17.515 22 22.001 17.514 22.001 12C22.001 6.486 17.515 2 12.001 2Z" fill="#AEAEBA"/>
</svg>
