<svg width="24" height="24" viewBox="0 0 24 24" fill="none" xmlns="http://www.w3.org/2000/svg">
<path fill-rule="evenodd" clip-rule="evenodd" d="M9.1 10c0-1.654 1.346-3 3-3s3 1.346 3 3-1.346 3-3 3-3-1.346-3-3zm10.704 7.905a8.51 8.51 0 00-4.37-4.206C16.449 12.783 17.1 11.471 17.1 10c0-2.757-2.243-5-5-5s-5 2.243-5 5c0 1.471.65 2.783 1.666 3.699a8.514 8.514 0 00-4.372 4.21 1.001 1.001 0 00.906 1.423.999.999 0 00.906-.578A6.53 6.53 0 0112.1 15a6.53 6.53 0 015.893 3.752 1 1 0 001.81-.847z" fill="#AEAEBA"></path>
</svg>