<svg width="24" height="24" viewBox="0 0 24 24" fill="none" xmlns="http://www.w3.org/2000/svg">
<path d="M18.284 15.263H8.33c-.503 0-.905-.302-1.005-.805L5.815 8.123 5.212 6.01H4.005C3.402 6.011 3 5.61 3 5.006 3 4.402 3.402 4 4.005 4h2.011c.503 0 .905.302 1.006.804l.503 2.112 12.469.1c.302 0 .603.101.804.403.202.201.202.603.202.905l-1.71 6.335c-.201.302-.603.604-1.006.604zm-9.15-2.012h8.346l1.207-4.324-10.66-.1 1.107 4.424zM9.234 21.095A2.596 2.596 0 016.62 18.48c0-1.508 1.106-2.614 2.614-2.614 1.508 0 2.615 1.106 2.615 2.614a2.596 2.596 0 01-2.615 2.615zm0-3.117c-.302 0-.603.2-.603.603 0 .302.2.603.603.603.302 0 .604-.2.604-.603 0-.402-.302-.603-.604-.603zM16.977 21.095c-1.408 0-2.614-1.106-2.614-2.615 0-1.508 1.106-2.614 2.614-2.614 1.508 0 2.615 1.106 2.615 2.614a2.596 2.596 0 01-2.615 2.615zm0-3.117c-.302 0-.603.2-.603.603 0 .302.2.603.603.603.302 0 .604-.2.604-.603-.101-.402-.302-.603-.604-.603z" fill="#AEAEBA"></path>
</svg>